<svg xmlns="http://www.w3.org/2000/svg" width="24" height="24" shape-rendering="geometricPrecision" text-rendering="geometricPrecision" image-rendering="optimizeQuality" fill-rule="evenodd" clip-rule="evenodd"><path d="M12 1C5.92 1 1 6.05 1 12.28c0 4.99 3.15 9.21 7.52 10.7.55.11.75-.24.75-.54 0-.27-.01-.98-.01-1.92C6.2 21.2 5.55 19 5.55 19c-.5-1.3-1.22-1.65-1.22-1.65-1-.7.07-.68.07-.68 1.11.07 1.69 1.16 1.69 1.16.98 1.72 2.57 1.23 3.2.94.1-.73.38-1.23.7-1.51-2.44-.28-5.01-1.25-5.01-5.57 0-1.24.43-2.24 1.13-3.03-.12-.28-.49-1.43.1-2.99 0 0 .93-.3 3.03 1.16.88-.25 1.82-.37 2.76-.38.93.01 1.87.13 2.75.38 2.1-1.46 3.02-1.16 3.02-1.16.6 1.56.22 2.71.11 2.99.7.79 1.13 1.8 1.13 3.03 0 4.33-2.58 5.28-5.03 5.56.4.35.75 1.04.75 2.09 0 1.5-.01 2.72-.01 3.09 0 .3.19.66.75.54C19.85 21.48 23 17.26 23 12.28 23 6.05 18.08 1 12 1z" fill="#c9d1d9"/></svg>