<svg xmlns="http://www.w3.org/2000/svg" width="24" height="24" shape-rendering="geometricPrecision" text-rendering="geometricPrecision" image-rendering="optimizeQuality" fill-rule="evenodd" clip-rule="evenodd"><path d="M22.54 17.72c-.37-.61-.94-1.31-1.62-1.98-.48-.49-2.16-2.08-3.24-2.08-.34 0-.56.15-.68.27l-1.44 1.43c-.02.03-.1.05-.24.05-.8 0-2.48-.88-4.17-2.56C8.9 10.6 8.36 8.71 8.64 8.44l1.43-1.43c.12-.13.27-.35.27-.69 0-1.08-1.59-2.75-2.08-3.24C7.77 2.59 6.1 1 5.02 1c-.34 0-.56.15-.69.27L1.47 4.14c-.85.84-.54 2.5.91 4.92 1.27 2.09 3.27 4.55 5.64 6.92 4.2 4.2 8.45 7.02 10.58 7.02.53 0 .95-.16 1.26-.47l2.87-2.87c.62-.62.01-1.61-.19-1.94zm-3.65 3.84c-.03.03-.12.07-.29.07-1.45 0-5.31-2.32-9.61-6.62-2.29-2.29-4.22-4.66-5.43-6.66C2.2 6.09 2.33 5.22 2.44 5.11l2.7-2.7c.35.14 1.17.66 2.15 1.64.98.98 1.5 1.8 1.64 2.15L7.66 7.47c-1.31 1.32.38 4.21 2.52 6.35 1.83 1.83 3.8 2.97 5.14 2.97.63 0 1.01-.25 1.21-.45l1.27-1.27c.35.14 1.16.66 2.15 1.64.98.98 1.5 1.8 1.64 2.15l-2.7 2.7z" fill="#c9d1d9" fill-rule="nonzero"/></svg>