<svg xmlns="http://www.w3.org/2000/svg" width="24" height="24" shape-rendering="geometricPrecision" text-rendering="geometricPrecision" image-rendering="optimizeQuality" fill-rule="evenodd" clip-rule="evenodd"><defs><style>.fil0{fill:#c8d0d8}</style></defs><g id="Слой_x0020_1"><g id="_2687365354656"><path class="fil0" d="M5.18 21.16V2.68c0-.25.08-.33.33-.33h12.98c.25 0 .33.08.33.33v18.48c0 .26-.08.33-.33.33H5.51c-.25 0-.33-.07-.33-.33zM4.41 2.57v18.7c0 .55.45.99.99.99h13.2c.54 0 .99-.44.99-.99V2.57c0-.54-.45-.99-.99-.99H5.4c-.54 0-.99.45-.99.99z"/><path class="fil0" d="M6.5 7.41v-.22c.34-.18.57-.18.88-.33L8.59 8.4c.12-.18.15-.19.28-.38l.82-1.16c.29.02.67.12.88.22V9.5H6.5V7.41zm-.77.22c0 1.55-.24 2.64.33 2.64h5.28c0-1.81.32-3.42-.6-3.91-.37-.2-.9-.2-1.27-.38-.14.21-.3.39-.47.63-.18.25-.28.42-.52.58-.08-.31-.16-.33-.38-.61-.23-.3-.22-.28-.39-.6-.72.35-1.98.06-1.98 1.65zm0 6.27v.44h12.54c0-.53.08-.77-.33-.77H6.06c-.25 0-.33.08-.33.33zm0 2.09c0 .29-.01.44.33.44h11.88c.47 0 .47-.77 0-.77H6.06c-.25 0-.33.08-.33.33zm0-3.74h12.54v-.66H5.73zm0 5.94c0 .25.08.33.33.33h6.38c.4 0 .33-.23.33-.77H5.73v.44z"/><path class="fil0" d="M8.92 4.99h-.66c-.39-.44-.33-.28-.33-.99.43-.29.57-.49 1.01-.14.5.41.25.73-.02 1.13zm-1.76-.55c0 1.33 2.04 1.93 2.68.47.91-2.09-2.68-2.84-2.68-.47zM12 6.09h6.27v-.44c0-.25-.08-.33-.33-.33H12v.77zm0 4.18h5.94c.25 0 .33-.08.33-.33V9.5H12v.77zm0-2.09h5.94c.47 0 .47-.77 0-.77H12v.77zM12 4h6.27v-.66H12z"/></g></g></svg>